<?xml version="1.0" standalone="no"?>
<!DOCTYPE svg PUBLIC "-//W3C//DTD SVG 20010904//EN"
 "http://www.w3.org/TR/2001/REC-SVG-20010904/DTD/svg10.dtd">
<svg version="1.0" xmlns="http://www.w3.org/2000/svg"
 width="1598.000000pt" height="1598.000000pt" viewBox="0 0 1598.000000 1598.000000"
 preserveAspectRatio="xMidYMid meet">
<metadata>
Created by potrace 1.14, written by Peter Selinger 2001-2017
</metadata>
<g transform="translate(0.000000,1598.000000) scale(0.100000,-0.100000)"
fill="#000000" stroke="none">
<path d="M9688 11750 c-137 -137 -202 -208 -203 -225 -3 -21 115 -143 727
-755 663 -663 733 -731 756 -725 31 8 422 397 422 420 0 22 3 18 -774 794
-396 396 -693 686 -706 688 -16 2 -69 -44 -222 -197z"/>
<path d="M12965 11938 c-28 -16 -1428 -1417 -1450 -1451 l-18 -28 209 -209
c134 -135 216 -210 229 -210 13 0 265 246 747 727 578 578 728 733 728 753 0
19 -45 70 -193 218 -178 179 -214 212 -227 212 -3 -1 -14 -6 -25 -12z"/>
<path d="M7307 9934 c-1 -1 -141 -5 -312 -8 -170 -4 -339 -8 -375 -10 -36 -3
-128 -7 -205 -11 -162 -9 -177 -10 -310 -19 -55 -4 -111 -9 -125 -11 -14 -2
-61 -6 -105 -10 -44 -3 -91 -8 -105 -10 -14 -2 -54 -6 -90 -9 -36 -4 -76 -8
-89 -11 -13 -2 -47 -7 -75 -9 -43 -5 -112 -15 -336 -50 -14 -3 -95 -18 -180
-36 -727 -146 -1092 -379 -1035 -662 16 -80 68 -152 177 -243 51 -44 161 -138
243 -210 83 -72 238 -207 345 -299 107 -93 200 -174 205 -180 6 -6 37 -33 70
-61 33 -27 62 -52 65 -55 3 -3 73 -64 155 -135 83 -72 166 -144 185 -161 19
-17 127 -111 240 -209 113 -97 219 -189 235 -204 17 -15 102 -89 190 -165 320
-278 463 -402 505 -440 19 -17 82 -71 140 -121 58 -49 110 -94 116 -100 6 -5
39 -35 74 -65 156 -135 248 -216 285 -250 l40 -37 0 -254 0 -254 -40 -1 c-127
-4 -456 -28 -545 -39 -19 -3 -57 -7 -85 -10 -27 -3 -59 -7 -71 -9 -12 -2 -45
-7 -75 -11 -64 -7 -337 -61 -394 -77 -22 -6 -44 -13 -50 -14 -287 -76 -512
-188 -642 -322 -195 -198 -187 -455 18 -647 148 -137 375 -243 689 -320 82
-20 239 -53 285 -60 22 -3 69 -10 105 -16 98 -15 110 -17 175 -24 33 -3 76 -8
95 -10 334 -39 1050 -49 1475 -21 121 8 241 18 259 22 10 2 50 6 88 9 38 4 77
8 87 10 10 2 42 6 72 10 30 3 61 8 69 10 8 2 35 7 60 10 36 5 187 36 292 60
63 14 187 52 268 82 372 138 560 330 561 573 1 208 -140 377 -425 510 -130 61
-374 140 -506 164 -14 2 -36 7 -50 10 -73 17 -283 50 -395 62 -22 2 -58 6 -80
9 -128 15 -225 22 -420 31 -88 3 -167 8 -175 9 -13 2 -15 39 -18 258 l-2 256
192 167 c106 91 207 178 223 193 17 15 134 116 260 226 127 109 250 217 275
239 25 23 70 61 99 86 30 25 62 52 70 61 9 8 102 89 206 179 105 91 192 167
195 170 3 3 34 30 70 60 36 30 67 57 70 60 8 8 92 82 155 136 81 70 323 280
360 313 17 14 93 80 170 146 77 66 149 129 161 140 12 11 34 31 50 44 47 40
398 345 413 359 8 8 58 50 112 94 148 121 200 211 193 334 -10 168 -193 329
-505 443 -236 86 -552 159 -894 207 -27 3 -59 8 -70 10 -21 4 -36 6 -195 24
-52 6 -111 13 -130 15 -19 2 -66 7 -105 10 -38 3 -90 8 -115 10 -134 12 -291
23 -452 31 -62 3 -151 7 -198 9 -208 10 -1155 25 -1163 19z m1153 -467 c297
-14 379 -18 420 -22 25 -2 79 -7 120 -10 66 -5 135 -11 220 -20 60 -6 157 -18
175 -21 11 -3 38 -7 60 -10 195 -25 411 -96 476 -155 84 -76 62 -163 -58 -226
-84 -45 -262 -96 -408 -117 -60 -9 -118 -18 -140 -22 -11 -2 -51 -7 -90 -10
-38 -3 -77 -7 -85 -9 -8 -2 -58 -7 -110 -10 -52 -4 -105 -8 -117 -10 -12 -2
-79 -6 -150 -10 -70 -4 -157 -8 -193 -10 -425 -23 -1699 -23 -2120 0 -190 10
-332 20 -435 30 -27 2 -77 7 -110 10 -33 3 -73 7 -90 10 -16 2 -52 7 -80 10
-441 59 -663 161 -631 289 9 37 49 79 103 108 50 27 181 74 233 83 16 3 58 12
92 19 35 8 90 17 123 21 32 4 62 8 65 10 3 2 34 6 70 10 36 4 72 9 81 10 9 2
56 6 105 10 49 3 100 8 114 10 24 4 141 11 310 20 41 3 165 7 275 11 110 3
201 8 203 9 5 5 1453 -3 1572 -8z m-2743 -1053 c16 -1 62 -6 103 -9 41 -4 86
-8 100 -10 14 -2 66 -7 115 -10 50 -4 106 -8 125 -10 19 -2 89 -6 155 -10 66
-3 145 -8 175 -10 343 -26 1729 -26 2118 0 31 2 111 6 177 10 66 3 140 8 165
11 25 2 77 6 115 9 39 2 90 7 115 10 25 2 77 7 115 10 85 7 125 11 190 20 l50
7 -40 -34 c-22 -18 -80 -68 -130 -112 -160 -140 -208 -181 -340 -295 -71 -62
-141 -122 -155 -135 -14 -12 -74 -64 -135 -116 -60 -52 -115 -99 -121 -105
-22 -20 -142 -125 -264 -231 -69 -60 -130 -113 -136 -119 -6 -5 -24 -21 -40
-35 -96 -81 -170 -145 -174 -150 -8 -8 -154 -134 -168 -145 -7 -5 -23 -19 -35
-31 -12 -11 -56 -49 -97 -85 -41 -35 -77 -66 -80 -69 -3 -3 -20 -18 -37 -34
-36 -33 -31 -35 -133 54 -152 132 -247 215 -280 244 -20 17 -85 74 -145 126
-61 52 -112 97 -115 100 -3 3 -23 21 -46 40 -22 19 -67 58 -100 86 -32 29
-117 102 -189 164 -71 62 -146 127 -165 144 -19 17 -55 48 -80 70 -25 21 -72
62 -105 91 -33 29 -103 90 -155 135 -52 45 -109 94 -125 109 -17 14 -62 53
-100 86 -39 33 -72 62 -75 65 -3 3 -41 36 -85 74 -135 117 -130 109 -58 101
35 -4 75 -9 90 -11z m2333 -3238 c96 -4 191 -9 210 -11 19 -2 71 -6 115 -10
100 -7 195 -18 270 -30 257 -41 428 -108 493 -193 37 -48 38 -131 3 -181 -45
-63 -168 -125 -331 -164 -61 -15 -89 -21 -157 -31 -16 -3 -47 -7 -71 -11 -59
-9 -87 -13 -172 -20 -41 -3 -88 -8 -105 -10 -186 -27 -1269 -27 -1510 0 -16 2
-66 6 -109 10 -43 4 -87 8 -96 10 -9 2 -41 6 -70 10 -54 7 -75 10 -120 20 -14
3 -34 7 -45 9 -167 34 -305 95 -358 159 -18 22 -32 43 -32 46 -1 3 -4 16 -9
28 -22 64 49 165 150 212 53 26 154 61 194 68 14 2 41 8 60 13 30 8 74 15 200
35 59 9 132 16 304 30 32 3 129 7 215 11 l156 5 0 -205 0 -206 312 0 313 0 0
211 c0 115 3 208 8 206 4 -3 86 -8 182 -11z"/>
<path d="M11710 9722 c-153 -153 -200 -206 -200 -225 0 -19 153 -178 725 -750
398 -398 734 -727 747 -730 18 -5 54 26 225 195 160 159 203 207 203 228 0 21
-139 165 -725 750 -527 527 -732 726 -750 728 -22 3 -57 -27 -225 -196z"/>
</g>
</svg>
